<svg width="24" height="23" viewBox="0 0 24 23" fill="none" xmlns="http://www.w3.org/2000/svg">
<path d="M13.7157 13.7203C12.2004 13.0697 10.9291 11.9575 10.0829 10.5422C10.0444 10.4714 10.0291 10.3904 10.0392 10.3105C10.0493 10.2306 10.0843 10.1558 10.1391 10.0969L10.8657 9.30468C10.9161 9.2511 10.9497 9.18387 10.9622 9.11135C10.9747 9.03883 10.9656 8.96424 10.936 8.89687L9.79224 6.71718C9.79224 6.71718 9.28599 5.94374 8.25005 6.60937C8.25005 6.60937 5.52662 8.73749 7.26568 11.6625C9.00474 14.5875 10.6407 15.5766 12.1126 16.2937C13.3922 16.9172 16.1626 17.7469 17.836 14.7047C17.836 14.7047 18.4219 13.7672 17.836 13.5281C17.5688 13.4203 16.111 12.6984 15.4922 12.3984C15.414 12.3599 15.325 12.3491 15.2398 12.3678C15.1546 12.3866 15.0783 12.4337 15.0235 12.5016L14.1516 13.6031C14.1011 13.6667 14.0314 13.7124 13.953 13.7335C13.8745 13.7546 13.7913 13.75 13.7157 13.7203Z" stroke="white"/>
<path d="M1.15308 22.0735L3.02808 16.8235C1.76738 14.5419 1.37599 11.8809 1.92635 9.33296C2.47672 6.78503 3.93157 4.52278 6.02159 2.96499C8.1116 1.40721 10.6952 0.659397 13.2942 0.859988C15.8932 1.06058 18.3314 2.19599 20.1577 4.05603C21.9839 5.91607 23.0744 8.37478 23.2272 10.977C23.3801 13.5792 22.585 16.1487 20.9892 18.2097C19.3933 20.2708 17.1047 21.6839 14.5471 22.1875C11.9895 22.691 9.33612 22.2508 7.07808 20.9485L1.15308 22.0735Z" stroke="white" stroke-linecap="round"/>
</svg>
